<?xml version="1.0" encoding="UTF-8"?>
<svg version="1.1" xmlns="http://www.w3.org/2000/svg" width="390" height="286">
<path d="M0 0 C128.7 0 257.4 0 390 0 C390 94.38 390 188.76 390 286 C261.3 286 132.6 286 0 286 C0 191.62 0 97.24 0 0 Z " fill="#FEFEFE" transform="translate(0,0)"/>
<path d="M0 0 C1.22494944 1.02207522 2.43407921 2.06346971 3.625 3.125 C4.21667969 3.60195313 4.80835938 4.07890625 5.41796875 4.5703125 C12.72594367 10.9910057 18.18957959 21.85066333 18.86328125 31.55859375 C19.08603209 39.8649101 18.35991853 46.58540588 15.3046875 54.453125 C14.40600721 56.98967178 14.40600721 56.98967178 15.203125 58.90039062 C17.27565187 62.14298418 19.96509477 64.70837472 22.6953125 67.390625 C23.31662048 68.00901245 23.93792847 68.6273999 24.57806396 69.26452637 C25.9257861 70.60464599 27.27581358 71.94245028 28.62786865 73.27819824 C30.76722316 75.39201759 32.9002603 77.51202952 35.03173828 79.63378906 C39.55727267 84.13646817 44.09056951 88.63128215 48.625 93.125 C53.87943005 98.33225285 59.1306397 103.54266689 64.37347412 108.76159668 C66.47557097 110.85072172 68.58359939 112.93373453 70.69189453 115.01660156 C71.9797873 116.29722932 73.26740014 117.57813869 74.5546875 118.859375 C75.14280212 119.43715698 75.73091675 120.01493896 76.33685303 120.61022949 C82.45493971 126.72671393 82.45493971 126.72671393 82.77734375 131.2734375 C82.21183383 137.13417672 80.85338384 139.99974747 76.625 144.125 C72.46728962 146.20385519 68.1102909 145.92686945 63.625 145.125 C61.32575989 143.57339478 61.32575989 143.57339478 59.09301758 141.43603516 C58.22891266 140.61484192 57.36480774 139.79364868 56.47451782 138.9475708 C55.52239402 138.00902582 54.57265192 137.06806005 53.625 136.125 C53.12469143 135.62991692 52.62438286 135.13483383 52.10891342 134.62474823 C48.70408885 131.24452892 45.33689279 127.8284321 41.97916222 124.4015007 C38.78680989 121.14743102 35.57832315 117.90929971 32.37304688 114.66796875 C28.31822649 110.56510262 24.26829363 106.45768137 20.2331543 102.33544922 C16.94721798 98.97943038 13.64696272 95.63811025 10.33655739 92.30623245 C9.08200137 91.03807867 7.83288034 89.7645242 6.58936119 88.48554611 C4.8591721 86.70729778 3.11135281 84.94839542 1.3581543 83.19287109 C0.84949829 82.66107239 0.34084229 82.12927368 -0.18322754 81.58135986 C-1.76876406 79.95055056 -1.76876406 79.95055056 -4.375 78.125 C-7.68401987 78.28968038 -10.27247683 79.44139149 -13.3125 80.6875 C-24.26418392 84.38665447 -36.18750094 82.50358236 -46.44140625 77.68359375 C-57.8973247 71.50399318 -66.12528357 62.12412748 -70.1875 49.625 C-73.12717619 36.88640318 -71.67148271 24.63960614 -64.91796875 13.41015625 C-57.73416104 2.7708461 -48.32469224 -4.14037962 -35.859375 -7.56640625 C-22.63767166 -9.20872475 -11.1165616 -7.92214734 0 0 Z M-55.625 7.875 C-63.00831161 15.69866816 -67.47079776 25.40656353 -67.6875 36.1875 C-67.33369149 47.41030608 -63.52153602 57.98692907 -55.875 66.4375 C-46.99836687 74.61289621 -35.77760403 78.53860346 -23.8203125 78.3359375 C-13.39568212 77.43668823 -2.69880413 73.08800443 4.5 65.375 C13.29274893 54.36824954 16.16611398 41.93711339 14.625 28.125 C11.94059027 17.17510543 5.31893621 8.24881771 -4.0625 2.125 C-20.56381539 -7.80922171 -41.56689749 -5.317585 -55.625 7.875 Z " fill="#606060" transform="translate(196.375,27.875)"/>
<path d="M0 0 C4.19144953 1.6426624 7.00433403 4.72315449 10.11376953 7.85498047 C10.71586243 8.45356873 11.31795532 9.05215698 11.93829346 9.66888428 C13.92485709 11.64665374 15.90402524 13.63163988 17.8828125 15.6171875 C19.26206706 16.99509475 20.64161839 18.37270499 22.02145386 19.75003052 C24.91128579 22.63691432 27.79747041 25.52738356 30.68115234 28.42041016 C34.37777113 32.12842318 38.08329509 35.82738603 41.79159737 39.52371025 C44.64163158 42.36651755 47.4868851 45.21407117 50.33071518 48.06308365 C51.69520117 49.42890382 53.06117447 50.7932398 54.42865372 52.15606308 C56.33899068 54.06132129 58.24279928 55.97287303 60.14501953 57.88623047 C60.71129059 58.44845306 61.27756165 59.01067566 61.86099243 59.5899353 C66.85304747 64.63627288 66.85304747 64.63627288 68 68 C67.86598253 71.75248912 67.47542107 74.22744076 65.5 77.4375 C61.74900689 79.78187069 58.314012 79.77799968 54 79 C51.18437486 77.40730394 49.13417741 75.27843792 46.91967773 72.94140625 C46.27462784 72.29767059 45.62957794 71.65393494 44.96498108 70.99069214 C42.84913384 68.86860039 40.76691174 66.71649469 38.68359375 64.5625 C37.21869647 63.08080757 35.75179245 61.60109668 34.28297424 60.12329102 C30.43069196 56.23671803 26.60620446 52.32388124 22.78692627 48.40490723 C18.88157481 44.40733213 14.9504784 40.43525354 11.02148438 36.4609375 C3.322276 28.66533423 -4.34780327 20.84173591 -12 13 C-11.21665283 12.22116455 -10.43330566 11.4423291 -9.6262207 10.63989258 C-7.38313191 8.38512646 -5.26614112 6.09220248 -3.1875 3.6875 C-2.58292969 2.99011719 -1.97835937 2.29273437 -1.35546875 1.57421875 C-0.90816406 1.05472656 -0.46085938 0.53523438 0 0 Z " fill="#FCFCFC" transform="translate(207,90)"/>
<path d="M0 0 C3.87952438 0.72741082 5.34390364 1.61925809 8 4.5625 C12.22798888 11.95302455 11.9377051 21.33626887 11 29.5625 C9.40083555 33.71440474 7.10779917 36.45470083 4 39.5625 C0.91764722 39.96674299 -1.04328992 40.20945768 -4 39.5625 C-8.79404809 35.18532565 -10.72859736 30.60079971 -11.30078125 24.1953125 C-11.32948621 15.60295971 -11.07137314 9.54698407 -5.6875 2.5625 C-3 0.5625 -3 0.5625 0 0 Z " fill="#585858" transform="translate(296,197.4375)"/>
<path d="M0 0 C5.52703135 0.03943185 8.25804356 0.57813223 12.3125 4.3125 C14.44999925 7.51874887 14.60824999 8.53708103 14.625 12.25 C14.65013672 13.53197266 14.65013672 13.53197266 14.67578125 14.83984375 C14.24262911 17.78807282 13.35475211 19.17086823 11.3125 21.3125 C10.6525 21.3125 9.9925 21.3125 9.3125 21.3125 C9.6734375 22.12074219 10.034375 22.92898437 10.40625 23.76171875 C10.8703125 24.83035156 11.334375 25.89898437 11.8125 27 C12.50859375 28.58361328 12.50859375 28.58361328 13.21875 30.19921875 C14.26200801 33.16877816 14.54315301 35.20445063 14.3125 38.3125 C12.3325 38.8075 12.3325 38.8075 10.3125 39.3125 C6.3125 29.3125 6.3125 29.3125 5.4921875 26.54296875 C5.10289062 25.80691406 4.71359375 25.07085937 4.3125 24.3125 C2.6625 23.9825 1.0125 23.6525 -0.6875 23.3125 C-0.6875 28.2625 -0.6875 33.2125 -0.6875 38.3125 C-3.1625 38.8075 -3.1625 38.8075 -5.6875 39.3125 C-7.50315436 37.49684564 -6.81611899 34.99980038 -6.82644653 32.58361816 C-6.8244223 31.78258667 -6.82239807 30.98155518 -6.8203125 30.15625 C-6.82126923 29.33878296 -6.82222595 28.52131592 -6.82321167 27.67907715 C-6.82389345 25.94734622 -6.82203929 24.21561276 -6.81787109 22.48388672 C-6.81252279 19.82383518 -6.81781612 17.1639525 -6.82421875 14.50390625 C-6.82355797 12.82552046 -6.8222768 11.14713477 -6.8203125 9.46875 C-6.82233673 8.66771851 -6.82436096 7.86668701 -6.82644653 7.04138184 C-6.79826181 0.44741656 -6.53257684 0.15266785 0 0 Z " fill="#595959" transform="translate(322.6875,197.6875)"/>
<path d="M0 0 C3.24924091 1.59453489 4.32799531 4.47903109 5.859375 7.59765625 C6.17519531 8.21318359 6.49101563 8.82871094 6.81640625 9.46289062 C7.59299389 10.98076646 8.35283061 12.50719159 9.109375 14.03515625 C9.64046875 13.10832031 10.1715625 12.18148437 10.71875 11.2265625 C11.4316324 10.01653843 12.14521054 8.80692408 12.859375 7.59765625 C13.20742187 6.98599609 13.55546875 6.37433594 13.9140625 5.74414062 C16.56748455 1.29720181 16.56748455 1.29720181 19.25 0 C21.109375 0.03515625 21.109375 0.03515625 23.109375 2.03515625 C23.35229492 4.81323242 23.35229492 4.81323242 23.33984375 8.328125 C23.33791016 9.59849609 23.33597656 10.86886719 23.33398438 12.17773438 C23.32467896 13.1746228 23.32467896 13.1746228 23.31518555 14.19165039 C23.29710307 16.19735825 23.29590462 18.20319525 23.29492188 20.20898438 C23.26740407 26.26595852 23.06629013 32.04310168 22.109375 38.03515625 C19.634375 38.53015625 19.634375 38.53015625 17.109375 39.03515625 C16.614375 26.66015625 16.614375 26.66015625 16.109375 14.03515625 C14.459375 17.00515625 12.809375 19.97515625 11.109375 23.03515625 C9.789375 23.03515625 8.469375 23.03515625 7.109375 23.03515625 C5.789375 20.72515625 4.469375 18.41515625 3.109375 16.03515625 C2.779375 23.29515625 2.449375 30.55515625 2.109375 38.03515625 C-0.365625 38.53015625 -0.365625 38.53015625 -2.890625 39.03515625 C-4.91037233 37.01540892 -4.05461939 32.90431108 -4.05859375 30.1328125 C-4.06192215 29.33991318 -4.06525055 28.54701385 -4.06867981 27.73008728 C-4.07375226 26.04963767 -4.07608804 24.36917796 -4.07592773 22.6887207 C-4.07811286 20.11197366 -4.09626109 17.53565549 -4.11523438 14.95898438 C-4.11816845 13.32942855 -4.12015315 11.69987069 -4.12109375 10.0703125 C-4.12827927 9.29631607 -4.13546478 8.52231964 -4.14286804 7.72486877 C-4.11006561 0.07642684 -4.11006561 0.07642684 0 0 Z " fill="#595959" transform="translate(96.890625,197.96484375)"/>
<path d="M0 0 C4.16406148 2.04550389 6.29193919 3.72984797 8 8 C8.58348136 12.66027324 8.55902341 16.7549024 6.625 21.0625 C5 23 5 23 3 24 C1.29297265 24.06996014 -0.41668003 24.08440154 -2.125 24.0625 C-3.73375 24.041875 -5.3425 24.02125 -7 24 C-7 28.95 -7 33.9 -7 39 C-8.98 39 -10.96 39 -13 39 C-13 26.46 -13 13.92 -13 1 C-9.05322303 -0.97338848 -4.30160477 -0.44290148 0 0 Z " fill="#5F5F5F" transform="translate(198,198)"/>
<path d="M0 0 C3.88048202 1.29349401 5.53679243 3.86500855 8 7 C9.63356951 8.37368345 11.2925002 9.71937515 13 11 C13.04898437 10.37351563 13.09796875 9.74703125 13.1484375 9.1015625 C13.22320312 8.28429687 13.29796875 7.46703125 13.375 6.625 C13.47941406 5.40683594 13.47941406 5.40683594 13.5859375 4.1640625 C14 2 14 2 16 0 C18.125 0.375 18.125 0.375 20 1 C20.76677886 13.35061658 21.13305432 25.62594802 21 38 C19.34385343 38.38218767 17.67542976 38.71395102 16 39 C15.505 38.505 15.505 38.505 15 38 C15 36.9171875 15 35.834375 15 34.71875 C14.99806641 33.70167969 14.99806641 33.70167969 14.99609375 32.6640625 C14.99864224 31.25220052 15.03113284 29.8399837 15.09765625 28.4296875 C14.95947886 20.23116246 11.73707451 19.73707451 5 13 C4.34 21.58 3.68 30.16 3 39 C1.35 38.67 -0.3 38.34 -2 38 C-2 25.79 -2 13.58 -2 1 C-1.34 0.67 -0.68 0.34 0 0 Z " fill="#5B5B5B" transform="translate(246,198)"/>
<path d="M0 0 C2.00720923 0.28674418 4.0085944 0.61866701 6 1 C12.46287779 27.19661629 12.46287779 27.19661629 12 39 C10.35 39 8.7 39 7 39 C6.67 36.69 6.34 34.38 6 32 C2.7 32 -0.6 32 -4 32 C-4.33 34.31 -4.66 36.62 -5 39 C-6.65 38.67 -8.3 38.34 -10 38 C-9.39817988 30.83759753 -7.9277233 24.18308422 -6.0625 17.25 C-5.79759766 16.23550781 -5.53269531 15.22101563 -5.25976562 14.17578125 C-2.04872515 2.04872515 -2.04872515 2.04872515 0 0 Z " fill="#5D5D5D" transform="translate(223,198)"/>
<path d="M0 0 C1.1446875 0.3403125 1.1446875 0.3403125 2.3125 0.6875 C4.86566957 7.70137961 6.36616392 14.57822046 7.5625 21.9375 C7.748125 22.9996875 7.93375 24.061875 8.125 25.15625 C8.29515625 26.18234375 8.4653125 27.2084375 8.640625 28.265625 C8.87120605 29.64862793 8.87120605 29.64862793 9.10644531 31.05957031 C9.32286072 33.81963595 8.98321786 36.01308806 8.3125 38.6875 C6.6625 38.3575 5.0125 38.0275 3.3125 37.6875 C2.9825 35.7075 2.6525 33.7275 2.3125 31.6875 C-2.1425 32.1825 -2.1425 32.1825 -6.6875 32.6875 C-7.3475 34.6675 -8.0075 36.6475 -8.6875 38.6875 C-10.0075 38.6875 -11.3275 38.6875 -12.6875 38.6875 C-12.88929752 31.74124233 -11.50606585 25.6464023 -9.86157227 18.93408203 C-9.37360155 16.93176164 -8.90592572 14.92539256 -8.43945312 12.91796875 C-7.98022461 11.01724609 -7.98022461 11.01724609 -7.51171875 9.078125 C-7.23416748 7.92344727 -6.95661621 6.76876953 -6.6706543 5.57910156 C-5.32494641 1.62117649 -4.3860686 -0.51000798 0 0 Z " fill="#565656" transform="translate(75.6875,198.3125)"/>
<path d="M0 0 C3.0625 2.25 3.0625 2.25 5 5 C4.8125 7.3125 4.8125 7.3125 4 9 C1.525 8.505 1.525 8.505 -1 8 C-1 7.34 -1 6.68 -1 6 C-5.33229715 6.8604139 -5.33229715 6.8604139 -9 9 C-9.25068786 12.09631103 -9.18522508 15.20723686 -9.1875 18.3125 C-9.19974609 19.18068359 -9.21199219 20.04886719 -9.22460938 20.94335938 C-9.22654297 21.78318359 -9.22847656 22.62300781 -9.23046875 23.48828125 C-9.23457764 24.25696533 -9.23868652 25.02564941 -9.24291992 25.81762695 C-8.9713747 28.25716738 -8.21385935 29.88409011 -7 32 C-4.55519921 31.81171228 -4.55519921 31.81171228 -2 31 C0.66181082 27.7044247 0.15640774 24.06660119 0 20 C-2.31 19.67 -4.62 19.34 -7 19 C-7.38218767 17.34385343 -7.71395102 15.67542976 -8 14 C-6.44049449 12.44049449 -4.91122869 12.71803302 -2.75 12.625 C0.82703045 12.68775492 1.91800666 12.94812666 5.0625 14.9375 C7.70107938 19.10815773 7.8800903 22.19150666 7 27 C5.47879582 31.26084861 3.54998639 35.10239774 0 38 C-3.00836372 38.99152063 -5.84534641 39.27166613 -9 39 C-13.30968972 35.97404764 -14.69822753 32.99012781 -16 28 C-16.30006629 24.80773706 -16.32489215 21.64211053 -16.3125 18.4375 C-16.32861328 17.60025391 -16.34472656 16.76300781 -16.36132812 15.90039062 C-16.36628182 9.64387754 -15.18290084 6.30763803 -10.8125 1.6875 C-7.11611674 -0.53032996 -4.20918581 -0.99089485 0 0 Z " fill="#565656" transform="translate(362,198)"/>
<path d="M0 0 C6.6 0 13.2 0 20 0 C19.67 1.65 19.34 3.3 19 5 C14.71 5 10.42 5 6 5 C6 7.31 6 9.62 6 12 C6.71027344 11.98839844 7.42054688 11.97679687 8.15234375 11.96484375 C9.07144531 11.95582031 9.99054688 11.94679687 10.9375 11.9375 C11.85402344 11.92589844 12.77054688 11.91429687 13.71484375 11.90234375 C16 12 16 12 17 13 C17.04063832 14.66617115 17.042721 16.33388095 17 18 C13.57067929 19.71466036 9.78283935 19.05404056 6 19 C6 23.62 6 28.24 6 33 C10.62 33 15.24 33 20 33 C20.33 34.32 20.66 35.64 21 37 C20 38 20 38 18.05053711 38.11352539 C16.8015564 38.10567017 16.8015564 38.10567017 15.52734375 38.09765625 C14.71773193 38.09515869 13.90812012 38.09266113 13.07397461 38.09008789 C12.03893799 38.08098389 11.00390137 38.07187988 9.9375 38.0625 C6.658125 38.041875 3.37875 38.02125 0 38 C0 25.46 0 12.92 0 0 Z " fill="#595959" transform="translate(128,199)"/>
<path d="M0 0 C3.28034807 1.27999062 3.95789043 1.93683565 6 5 C6.25 8.0625 6.25 8.0625 6 11 C5.34 11.66 4.68 12.32 4 13 C1.875 12.625 1.875 12.625 0 12 C0 10.02 0 8.04 0 6 C-1.98 6 -3.96 6 -6 6 C-6.87754191 8.20438833 -6.87754191 8.20438833 -7 11 C-4.61903063 15.56352463 -1.33593932 18.80106954 2.4140625 22.2890625 C4.96309867 25.03900792 5.91112774 27.28902194 6.375 31 C6 34 6 34 4.1875 36.3125 C0.65738783 39.03572939 -2.59503911 39.33349411 -6.99609375 39.29296875 C-10.14507222 38.83259178 -11.834621 37.23099654 -14 35 C-15.35439668 32.29120665 -15.06501451 29.99066732 -15 27 C-13.125 26.375 -13.125 26.375 -11 26 C-8.8614515 28.1385485 -8.57344937 29.13275314 -8 32 C-5.69 32 -3.38 32 -1 32 C-1.12137529 27.99461529 -2.52379485 26.26473585 -5.3125 23.625 C-5.94027344 23.03589844 -6.56804687 22.44679687 -7.21484375 21.83984375 C-10.78004862 18.16542035 -13.69609621 13.27927843 -14.375 8.1875 C-14 5 -14 5 -12.0625 2.125 C-8.02344461 -0.67760986 -4.78997586 -0.81403883 0 0 Z " fill="#5C5C5C" transform="translate(171,198)"/>
<path d="M0 0 C1.66611905 -0.042721 3.33382885 -0.04063832 5 0 C7.66746507 2.66746507 6.18564594 10.53553169 6.1875 14.125 C6.19974609 15.34960938 6.21199219 16.57421875 6.22460938 17.8359375 C6.24828656 32.42108306 6.24828656 32.42108306 1.875 37.4375 C-1.89369488 39.48570374 -4.80032794 39.83145023 -9 39 C-12.63686165 36.98811909 -13.74004795 35.86650682 -14.9375 31.875 C-14.958125 30.92625 -14.97875 29.9775 -15 29 C-14.34 28.34 -13.68 27.68 -13 27 C-11 27.125 -11 27.125 -9 28 C-7.75 30.0625 -7.75 30.0625 -7 32 C-5.33388095 32.042721 -3.66617115 32.04063832 -2 32 C-0.08780415 30.08780415 -0.75564702 26.66354496 -0.68359375 24.12109375 C-0.66281265 23.4344313 -0.64203156 22.74776886 -0.62062073 22.04029846 C-0.55505857 19.83947065 -0.49620985 17.63852025 -0.4375 15.4375 C-0.39432108 13.94855486 -0.350707 12.45962227 -0.30664062 10.97070312 C-0.1993707 7.31393447 -0.09812228 3.65702682 0 0 Z " fill="#575757" transform="translate(50,199)"/>
<path d="M0 0 C11.28 0 11.28 0 15 3 C16 4 16 4 16.25 6.875 C16 10 16 10 14.5 11.875 C14.005 12.24625 13.51 12.6175 13 13 C14.25756667 16.48249231 15.7731892 19.06465849 18 22 C18 22.66 18 23.32 18 24 C16.02 24 14.04 24 12 24 C11.66226563 23.36191406 11.32453125 22.72382813 10.9765625 22.06640625 C10.53054687 21.24011719 10.08453125 20.41382813 9.625 19.5625 C9.18414062 18.73878906 8.74328125 17.91507812 8.2890625 17.06640625 C7.16581441 14.86533422 7.16581441 14.86533422 5 14 C5 17.3 5 20.6 5 24 C3.35 24 1.7 24 0 24 C0 16.08 0 8.16 0 0 Z " fill="#5C5C5C" transform="translate(112,250)"/>
<path d="M0 0 C3 1.4375 3 1.4375 5 4 C5.70493705 7.14910406 5.70493705 9.85089594 5 13 C2.88102174 15.7149409 1.41370088 16.67792702 -1.9375 17.44140625 C-4.16314347 17.63952224 -5.83743973 17.57001086 -8 17 C-11.0625 14.4375 -11.0625 14.4375 -13 11 C-13.06817573 7.04580795 -12.5665223 4.88377478 -10.4375 1.5625 C-6.99575162 -0.64374896 -3.91132078 -0.73579302 0 0 Z " fill="#5B5B5B" transform="translate(226,257)"/>
<path d="M0 0 C5.66176471 2.98529412 5.66176471 2.98529412 7 7 C4.625 7.625 4.625 7.625 2 8 C1.34 7.34 0.68 6.68 0 6 C-1.90821061 5.64486621 -1.90821061 5.64486621 -4 5.6875 C-5.051875 5.66236328 -5.051875 5.66236328 -6.125 5.63671875 C-6.74375 5.75660156 -7.3625 5.87648437 -8 6 C-10.31332486 9.46998729 -10.33957563 10.92509248 -10 15 C-9.01 16.485 -9.01 16.485 -8 18 C-6.09542071 18.43827201 -6.09542071 18.43827201 -4 18.3125 C-2.948125 18.30669922 -2.948125 18.30669922 -1.875 18.30078125 C0.2416577 18.14912946 0.2416577 18.14912946 2 16 C4.625 16.375 4.625 16.375 7 17 C5.67770588 19.51235884 4.57298801 21.55434266 2.3125 23.3125 C-2.31090782 24.68702665 -6.39440453 24.64223819 -10.8125 22.875 C-14.6364587 19.59732112 -15.85320549 16.39454782 -16.375 11.4375 C-15.85227942 6.6458947 -14.50684008 4.24852464 -10.8125 1.1875 C-7.14428262 -0.3613029 -3.88557168 -0.69818866 0 0 Z " fill="#5C5C5C" transform="translate(148,250)"/>
<path d="M0 0 C0.86625 0.7425 1.7325 1.485 2.625 2.25 C2.625 3.57 2.625 4.89 2.625 6.25 C-2.25 5.375 -2.25 5.375 -3.375 4.25 C-8.03552404 3.82607843 -8.03552404 3.82607843 -12.3125 5.375 C-13.87922245 8.13980433 -13.76476435 10.13188517 -13.375 13.25 C-12.43902685 15.26951062 -12.43902685 15.26951062 -10.375 16.25 C-6.83300359 16.66673207 -6.83300359 16.66673207 -3.375 16.25 C-2.715 15.59 -2.055 14.93 -1.375 14.25 C1.25 14.625 1.25 14.625 3.625 15.25 C2.62949135 17.8745228 1.68536546 19.20028727 -0.5 21 C-4.19845193 22.60802258 -7.4476367 23.08004939 -11.375 22.25 C-15.051999 20.21350824 -18.13747686 17.33382636 -19.375 13.25 C-19.90057168 9.22061711 -19.55580124 7.56338881 -17.5 4 C-12.76100002 -2.1328235 -7.19296863 -3.72968744 0 0 Z " fill="#585858" transform="translate(104.375,251.75)"/>
<path d="M0 0 C2 0.125 2 0.125 4 1 C6.8281839 4.82754217 6.33074726 9.39393339 6.3125 13.9375 C6.32861328 14.73607422 6.34472656 15.53464844 6.36132812 16.35742188 C6.36525002 21.09115511 5.98421593 24.10240928 3 28 C1.1875 27.875 1.1875 27.875 -1 27 C-3.76022539 22.53963579 -4.38612286 19.14207021 -4.3125 13.9375 C-4.30863281 12.75027344 -4.30476563 11.56304687 -4.30078125 10.33984375 C-3.90766475 5.97471901 -3.11743249 3.11743249 0 0 Z " fill="#F8F8F8" transform="translate(295,204)"/>
<path d="M0 0 C0.00586624 0.54679413 0.01173248 1.09358826 0.01777649 1.6569519 C0.08158104 7.33463519 0.16596575 13.01174479 0.26245117 18.68896484 C0.2957596 20.80933074 0.3237729 22.92978657 0.34643555 25.05029297 C0.37987303 28.09381535 0.43218253 31.13650912 0.48828125 34.1796875 C0.49467117 35.13181122 0.5010611 36.08393494 0.50764465 37.06491089 C0.53733589 38.38605392 0.53733589 38.38605392 0.56762695 39.73388672 C0.57873001 40.51110077 0.58983307 41.28831482 0.60127258 42.08908081 C0.85203989 44.40778655 0.85203989 44.40778655 4 46 C4 46.99 4 47.98 4 49 C1.125 48.75 1.125 48.75 -2 48 C-4.79097005 44.38047892 -4.35011548 39.88175106 -4.4140625 35.515625 C-4.43342865 34.70003113 -4.4527948 33.88443726 -4.4727478 33.04412842 C-4.53239575 30.44619108 -4.57886942 27.84820907 -4.625 25.25 C-4.66319342 23.48565806 -4.70224595 21.72133449 -4.7421875 19.95703125 C-4.83808505 15.63817054 -4.92217047 11.31922256 -5 7 C-6.65 7.33 -8.3 7.66 -10 8 C-9.875 6.25 -9.875 6.25 -9 4 C-3.88888889 0 -3.88888889 0 0 0 Z " fill="#626262" transform="translate(173,48)"/>
<path d="M0 0 C2.5 1.6875 2.5 1.6875 4 4 C4 5.65 4 7.3 4 9 C0.04 9 -3.92 9 -8 9 C-6.33045181 12.22404978 -6.33045181 12.22404978 -3.375 12.6875 C-2.59125 12.790625 -1.8075 12.89375 -1 13 C-1 12.34 -1 11.68 -1 11 C0.65 11 2.3 11 4 11 C2.63016497 14.16115776 2.0109362 14.9927092 -1 17 C-4.375 17.5 -4.375 17.5 -8 17 C-11.22341676 14.11949992 -12.75697586 12.19081827 -13.625 7.9375 C-11.99158083 0.26042991 -6.87722671 -0.98246096 0 0 Z " fill="#5D5D5D" transform="translate(191,257)"/>
<path d="M0 0 C2.5 1.6875 2.5 1.6875 4 4 C4 5.65 4 7.3 4 9 C0.04 9 -3.92 9 -8 9 C-7.01 10.485 -7.01 10.485 -6 12 C-2.89505874 12.31845551 -0.98273923 11.99424641 2 11 C2.66 11.66 3.32 12.32 4 13 C2.28977272 15.28030304 0.94809908 16.7979461 -1.90625 17.40625 C-5.36378713 17.5610651 -7.46819716 17.30578664 -10.5 15.5625 C-12.73570183 11.74317604 -12.76004105 8.31481639 -12 4 C-9.22610446 -0.73873822 -5.05006287 -1.02450046 0 0 Z " fill="#646464" transform="translate(298,257)"/>
<path d="M0 0 C1.32 0 2.64 0 4 0 C4.33 3.96 4.66 7.92 5 12 C6.65 12.33 8.3 12.66 10 13 C10.33 8.71 10.66 4.42 11 0 C12.65 0 14.3 0 16 0 C16 5.61 16 11.22 16 17 C13.66666667 17 11.33333333 17 9 17 C8.030625 17.04125 7.06125 17.0825 6.0625 17.125 C3 17 3 17 0 15 C-0.22137393 12.37302936 -0.28162025 9.99106036 -0.1875 7.375 C-0.17396484 6.66859375 -0.16042969 5.9621875 -0.14648438 5.234375 C-0.1111104 3.48925872 -0.05730221 1.74453392 0 0 Z " fill="#5D5D5D" transform="translate(235,257)"/>
<path d="M0 0 C2.5 1.3125 2.5 1.3125 4 3 C4 3.99 4 4.98 4 6 C3.28972656 5.91621094 2.57945312 5.83242188 1.84765625 5.74609375 C0.46900391 5.59333984 0.46900391 5.59333984 -0.9375 5.4375 C-1.85402344 5.33308594 -2.77054687 5.22867187 -3.71484375 5.12109375 C-4.84599609 5.06115234 -4.84599609 5.06115234 -6 5 C-7.28322547 6.0595877 -7.28322547 6.0595877 -7.125 8.5 C-7.28322547 10.9404123 -7.28322547 10.9404123 -6 12 C-2.51119051 12.19382275 0.60169639 11.77675511 4 11 C2.25 15.875 2.25 15.875 0 17 C-4.29322859 17.48602588 -6.32082639 17.46241608 -9.9375 15 C-12.79117716 10.84919686 -12.7099846 8.9698922 -12 4 C-9.13719453 -0.77134246 -5.0986737 -0.87764056 0 0 Z " fill="#595959" transform="translate(279,257)"/>
<path d="M0 0 C1.22589844 0.15275391 1.22589844 0.15275391 2.4765625 0.30859375 C3.41628906 0.43427734 3.41628906 0.43427734 4.375 0.5625 C4.705 1.5525 5.035 2.5425 5.375 3.5625 C2.32236336 4.54370464 0.42763664 4.54370464 -2.625 3.5625 C0.24450512 5.56508406 0.24450512 5.56508406 3 6.875 C5.375 8.5625 5.375 8.5625 6.1875 11.25 C6.249375 12.013125 6.31125 12.77625 6.375 13.5625 C4.51070132 15.50447779 3.12574667 16.51798933 0.3984375 16.6796875 C-1.75 16.5 -1.75 16.5 -5.625 15.5625 C-7.125 13.5 -7.125 13.5 -7.625 11.5625 C-4.985 11.8925 -2.345 12.2225 0.375 12.5625 C0.705 11.9025 1.035 11.2425 1.375 10.5625 C0.26125 10.27375 -0.8525 9.985 -2 9.6875 C-5.625 8.5625 -5.625 8.5625 -7.625 6.5625 C-7.375 3.5 -7.375 3.5 -6.625 0.5625 C-4.10446405 -0.69776798 -2.7707902 -0.35624445 0 0 Z " fill="#595959" transform="translate(312.625,257.4375)"/>
<path d="M0 0 C2.375 2 2.375 2 4 4 C1.21176345 5.0326802 0.1322726 5.04509293 -2.75 4.0625 C-3.4925 3.711875 -4.235 3.36125 -5 3 C-2.63672401 5.73642483 -0.36305523 6.76097965 3 8 C4 9 4 9 4.25 11.9375 C4.1675 12.948125 4.085 13.95875 4 15 C0.31282562 17.45811625 -1.64345704 17.31118164 -6 17 C-6.99 16.34 -7.98 15.68 -9 15 C-9 14.01 -9 13.02 -9 12 C-6.36 12.33 -3.72 12.66 -1 13 C-0.67 12.34 -0.34 11.68 0 11 C-1.11375 10.71125 -2.2275 10.4225 -3.375 10.125 C-7 9 -7 9 -9 7 C-9.3125 4.5 -9.3125 4.5 -9 2 C-5.50875983 -0.32749345 -4.10777749 -0.50299316 0 0 Z " fill="#5B5B5B" transform="translate(207,257)"/>
<path d="M0 0 C6 0 6 0 8.4375 1.5625 C10 4 10 4 9.875 7.625 C9 11 9 11 7 13 C3.375 13.125 3.375 13.125 0 13 C0 8.71 0 4.42 0 0 Z " fill="#F6F6F6" transform="translate(191,204)"/>
<path d="M0 0 C3.33333333 0 6.66666667 0 10 0 C10 1.32 10 2.64 10 4 C9.03320312 4.32097656 9.03320312 4.32097656 8.046875 4.6484375 C5.72160885 5.8473523 5.72160885 5.8473523 5.390625 8.6015625 C5.34421875 9.59929687 5.2978125 10.59703125 5.25 11.625 C5.19328125 12.62789063 5.1365625 13.63078125 5.078125 14.6640625 C5.05234375 15.43492187 5.0265625 16.20578125 5 17 C3.35 17 1.7 17 0 17 C0 11.39 0 5.78 0 0 Z " fill="#606060" transform="translate(255,257)"/>
<path d="M0 0 C1.32 0 2.64 0 4 0 C4 0.66 4 1.32 4 2 C4.99 1.34 5.98 0.68 7 0 C7.99 0 8.98 0 10 0 C10 1.32 10 2.64 10 4 C9.03320312 4.32097656 9.03320312 4.32097656 8.046875 4.6484375 C5.72160885 5.8473523 5.72160885 5.8473523 5.390625 8.6015625 C5.34421875 9.59929687 5.2978125 10.59703125 5.25 11.625 C5.19328125 12.62789063 5.1365625 13.63078125 5.078125 14.6640625 C5.05234375 15.43492187 5.0265625 16.20578125 5 17 C3.35 17 1.7 17 0 17 C0 11.39 0 5.78 0 0 Z " fill="#5C5C5C" transform="translate(167,257)"/>
<path d="M0 0 C2.4375 0.1875 2.4375 0.1875 3.4375 1.1875 C4.4275 1.1875 5.4175 1.1875 6.4375 1.1875 C7.4275 1.1875 8.4175 1.1875 9.4375 1.1875 C10.4375 2.1875 10.4375 2.1875 10.5 4.75 C10.479375 5.554375 10.45875 6.35875 10.4375 7.1875 C8.7359375 7.4040625 8.7359375 7.4040625 7 7.625 C3.62972799 7.79921478 3.62972799 7.79921478 2.4375 9.1875 C0 9.375 0 9.375 -2.5625 9.1875 C-4.5625 7.1875 -4.5625 7.1875 -4.8125 4.6875 C-4.45862826 1.14878262 -3.54553886 0.25942967 0 0 Z " fill="#F2F2F2" transform="translate(275.5625,260.8125)"/>
<path d="M0 0 C7.75 0.75 7.75 0.75 10 3 C10.35571424 5.77457104 10.36405327 7.37896796 8.9375 9.8125 C6.00731249 11.60842137 3.3527047 11.18977574 0 11 C0 7.37 0 3.74 0 0 Z " fill="#FBFBFB" transform="translate(322,204)"/>
<path d="M0 0 C1.875 1.1875 1.875 1.1875 3 3 C2.75546876 6.34192692 2.39456443 7.60543557 0 10 C-3.625 9.625 -3.625 9.625 -7 9 C-8.33157895 3.55263158 -8.33157895 3.55263158 -6.875 1.125 C-4.36737712 -0.37957373 -2.87879197 -0.4318188 0 0 Z " fill="#626262" transform="translate(174,33)"/>
<path d="M0 0 C2.5 0.25 2.5 0.25 4.5 2.25 C3.93181818 7.81818182 3.93181818 7.81818182 2.5 9.25 C0.0625 9.4375 0.0625 9.4375 -2.5 9.25 C-4.5 7.25 -4.5 7.25 -4.75 4.75 C-4.40058445 1.25584452 -3.49415548 0.34941555 0 0 Z " fill="#F9F9F9" transform="translate(222.5,260.75)"/>
<path d="M0 0 C2.34770643 3.52155964 2.37669614 5.50771843 2.625 9.6875 C2.69976562 10.86699219 2.77453125 12.04648438 2.8515625 13.26171875 C2.90054688 14.16535156 2.94953125 15.06898438 3 16 C1.02 16 -0.96 16 -3 16 C-2.52013969 10.43109483 -1.70084819 5.32932432 0 0 Z " fill="#F0F0F0" transform="translate(74,208)"/>
<path d="M0 0 C0.33 0 0.66 0 1 0 C2.12862175 5.36095333 2.09688221 10.55306686 2 16 C0.02 16 -1.96 16 -4 16 C-3.52546129 13.51986371 -3.04561015 11.04096744 -2.5625 8.5625 C-2.42779297 7.85544922 -2.29308594 7.14839844 -2.15429688 6.41992188 C-1.11328125 1.11328125 -1.11328125 1.11328125 0 0 Z " fill="#F0F0F0" transform="translate(225,208)"/>
<path d="M0 0 C3.96 0 7.92 0 12 0 C11.67 0.66 11.34 1.32 11 2 C9.68 2 8.36 2 7 2 C7 2.66 7 3.32 7 4 C5.35 4 3.7 4 2 4 C1.34 2.68 0.68 1.36 0 0 Z " fill="#ECECEC" transform="translate(183,266)"/>
<path d="M0 0 C2.97 0.495 2.97 0.495 6 1 C6 2.32 6 3.64 6 5 C4.02 5.33 2.04 5.66 0 6 C0 4.02 0 2.04 0 0 Z " fill="#F0F0F0" transform="translate(117,254)"/>
<path d="M0 0 C3.96 0 7.92 0 12 0 C10.68 0.99 9.36 1.98 8 3 C7.67 3.33 7.34 3.66 7 4 C5.33382885 4.04063832 3.66611905 4.042721 2 4 C1.34 2.68 0.68 1.36 0 0 Z " fill="#E6E6E6" transform="translate(290,266)"/>
<path d="M0 0 C1.67542976 0.28604898 3.34385343 0.61781233 5 1 C4.67 2.32 4.34 3.64 4 5 C2.68 5.33 1.36 5.66 0 6 C-0.38218767 4.34385343 -0.71395102 2.67542976 -1 1 C-0.67 0.67 -0.34 0.34 0 0 Z " fill="#686868" transform="translate(274,231)"/>
<path d="M0 0 C-0.33 0.99 -0.66 1.98 -1 3 C-3.86724686 2.42655063 -4.8614515 2.1385485 -7 0 C-4.3333581 -1.33332095 -2.83319697 -0.67102033 0 0 Z " fill="#E4E4E4" transform="translate(314,268)"/>
<path d="M0 0 C-0.33 0.99 -0.66 1.98 -1 3 C-3.86724686 2.42655063 -4.8614515 2.1385485 -7 0 C-4.3333581 -1.33332095 -2.83319697 -0.67102033 0 0 Z " fill="#E2E2E2" transform="translate(207,268)"/>
<path d="M0 0 C1.65 0.33 3.3 0.66 5 1 C5 1.66 5 2.32 5 3 C2.69 3 0.38 3 -2 3 C-1.34 2.01 -0.68 1.02 0 0 Z " fill="#EDEDED" transform="translate(185,260)"/>
</svg>
